<svg width="86" height="29" viewBox="0 0 86 29" fill="none" xmlns="http://www.w3.org/2000/svg">
<g filter="url(#filter0_d_3_2)">
<path d="M13.408 18.448C12.616 18.448 12.032 18.26 11.656 17.884C11.28 17.508 11.092 16.928 11.092 16.144V13.372H10.504C10.168 13.372 10 13.204 10 12.868C10 12.532 10.168 12.364 10.504 12.364H11.092V11.488C11.092 11.152 11.26 10.984 11.596 10.984C11.932 10.984 12.1 11.152 12.1 11.488V12.364H13.48C13.816 12.364 13.984 12.532 13.984 12.868C13.984 13.204 13.816 13.372 13.48 13.372H12.1V16.144C12.1 16.652 12.192 16.996 12.376 17.176C12.56 17.352 12.904 17.44 13.408 17.44C13.564 17.44 13.686 17.48 13.774 17.56C13.866 17.64 13.912 17.768 13.912 17.944C13.912 18.28 13.744 18.448 13.408 18.448Z" fill="black"/>
<path d="M18.3633 18.436C17.4473 18.436 16.7693 18.218 16.3293 17.782C15.8933 17.342 15.6753 16.664 15.6753 15.748V12.976C15.6753 12.052 15.8933 11.372 16.3293 10.936C16.7693 10.5 17.4473 10.288 18.3633 10.3H19.0833C20.0033 10.3 20.6813 10.518 21.1173 10.954C21.5533 11.386 21.7713 12.064 21.7713 12.988V13.678H22.8217V14.368H21.7713V15.748C21.7713 16.664 21.5533 17.342 21.1173 17.782C20.6813 18.218 20.0033 18.436 19.0833 18.436H18.3633ZM18.3633 17.428H19.0833C19.5113 17.428 19.8473 17.376 20.0913 17.272C20.3353 17.168 20.5073 16.994 20.6073 16.75C20.7113 16.506 20.7633 16.172 20.7633 15.748V12.988C20.7633 12.56 20.7113 12.224 20.6073 11.98C20.5073 11.736 20.3353 11.564 20.0913 11.464C19.8473 11.36 19.5113 11.308 19.0833 11.308H18.3633C17.9393 11.3 17.6053 11.346 17.3613 11.446C17.1173 11.542 16.9433 11.714 16.8393 11.962C16.7353 12.206 16.6833 12.544 16.6833 12.976V15.748C16.6833 16.172 16.7333 16.506 16.8333 16.75C16.9373 16.994 17.1113 17.168 17.3553 17.272C17.5993 17.376 17.9353 17.428 18.3633 17.428ZM18.5793 14.956C18.2593 14.956 18.0993 14.796 18.0993 14.476V14.176C18.0993 13.864 18.2593 13.708 18.5793 13.708H18.8673C19.1713 13.708 19.3233 13.864 19.3233 14.176V14.476C19.3233 14.796 19.1713 14.956 18.8673 14.956H18.5793Z" fill="#FF833B"/>
<path d="M26.5665 18.436C25.6505 18.436 24.9725 18.218 24.5325 17.782C24.0965 17.342 23.8785 16.664 23.8785 15.748V14.362L22.8217 14.368V13.678L23.8785 13.669V12.976C23.8785 12.052 24.0965 11.372 24.5325 10.936C24.9725 10.5 25.6505 10.288 26.5665 10.3H27.2865C28.2065 10.3 28.8845 10.518 29.3205 10.954C29.7565 11.386 29.9745 12.064 29.9745 12.988V15.748C29.9745 16.664 29.7565 17.342 29.3205 17.782C28.8845 18.218 28.2065 18.436 27.2865 18.436H26.5665ZM26.5665 17.428H27.2865C27.7145 17.428 28.0505 17.376 28.2945 17.272C28.5385 17.168 28.7105 16.994 28.8105 16.75C28.9145 16.506 28.9665 16.172 28.9665 15.748V12.988C28.9665 12.56 28.9145 12.224 28.8105 11.98C28.7105 11.736 28.5385 11.564 28.2945 11.464C28.0505 11.36 27.7145 11.308 27.2865 11.308H26.5665C26.1425 11.3 25.8085 11.346 25.5645 11.446C25.3205 11.542 25.1465 11.714 25.0425 11.962C24.9385 12.206 24.8865 12.544 24.8865 12.976V15.748C24.8865 16.172 24.9365 16.506 25.0365 16.75C25.1405 16.994 25.3145 17.168 25.5585 17.272C25.8025 17.376 26.1385 17.428 26.5665 17.428ZM26.7825 14.956C26.4625 14.956 26.3025 14.796 26.3025 14.476V14.176C26.3025 13.864 26.4625 13.708 26.7825 13.708H27.0705C27.3745 13.708 27.5265 13.864 27.5265 14.176V14.476C27.5265 14.796 27.3745 14.956 27.0705 14.956H26.7825Z" fill="#FF833B"/>
<path d="M34.0856 18.448C33.4736 18.448 33.0176 18.298 32.7176 17.998C32.4216 17.694 32.2736 17.236 32.2736 16.624V10.504C32.2736 10.168 32.4416 10 32.7776 10C33.1136 10 33.2816 10.168 33.2816 10.504V16.624C33.2816 16.948 33.3336 17.166 33.4376 17.278C33.5456 17.386 33.7616 17.44 34.0856 17.44C34.4296 17.44 34.6016 17.608 34.6016 17.944C34.6136 18.28 34.4416 18.448 34.0856 18.448Z" fill="black"/>
<path d="M37.1189 18.448C36.7829 18.448 36.6149 18.28 36.6149 17.944V13.372H36.1709C35.8349 13.372 35.6669 13.204 35.6669 12.868C35.6669 12.532 35.8349 12.364 36.1709 12.364H36.6149V12.316C36.6149 11.528 36.8049 10.946 37.1849 10.57C37.5649 10.19 38.1469 10 38.9309 10C39.2189 10 39.3629 10.168 39.3629 10.504C39.3629 10.84 39.2189 11.008 38.9309 11.008C38.4269 11.008 38.0829 11.098 37.8989 11.278C37.7149 11.458 37.6229 11.804 37.6229 12.316V12.364H38.8589C39.1949 12.364 39.3629 12.532 39.3629 12.868C39.3629 13.204 39.1949 13.372 38.8589 13.372H37.6229V17.944C37.6229 18.28 37.4549 18.448 37.1189 18.448Z" fill="black"/>
<path d="M42.7165 18.448C41.9205 18.448 41.3285 18.256 40.9405 17.872C40.5565 17.488 40.3645 16.9 40.3645 16.108V14.716C40.3645 13.912 40.5565 13.32 40.9405 12.94C41.3285 12.556 41.9205 12.364 42.7165 12.364H43.7005C44.5005 12.364 45.0925 12.556 45.4765 12.94C45.8605 13.324 46.0525 13.916 46.0525 14.716V16.096C46.0525 16.892 45.8605 17.484 45.4765 17.872C45.0925 18.256 44.5005 18.448 43.7005 18.448H42.7165ZM41.3725 16.108C41.3725 16.624 41.4665 16.976 41.6545 17.164C41.8425 17.348 42.1965 17.44 42.7165 17.44H43.7005C44.2245 17.44 44.5785 17.346 44.7625 17.158C44.9505 16.97 45.0445 16.616 45.0445 16.096V14.716C45.0445 14.192 44.9505 13.838 44.7625 13.654C44.5785 13.466 44.2245 13.372 43.7005 13.372H42.7165C42.3685 13.372 42.0965 13.412 41.9005 13.492C41.7085 13.568 41.5725 13.704 41.4925 13.9C41.4125 14.092 41.3725 14.364 41.3725 14.716V16.108Z" fill="black"/>
<path d="M48.762 18.448C48.426 18.448 48.258 18.28 48.258 17.944V12.868C48.258 12.532 48.426 12.364 48.762 12.364C49.098 12.364 49.266 12.532 49.266 12.868V13.336C49.502 13.016 49.802 12.774 50.166 12.61C50.534 12.446 50.954 12.364 51.426 12.364C51.762 12.364 51.93 12.532 51.93 12.868C51.93 13.204 51.762 13.372 51.426 13.372C50.734 13.372 50.206 13.5 49.842 13.756C49.478 14.012 49.286 14.35 49.266 14.77V17.944C49.266 18.28 49.098 18.448 48.762 18.448Z" fill="black"/>
<path d="M60.0391 12.364C60.7951 12.364 61.3371 12.542 61.6651 12.898C61.9971 13.254 62.1631 13.844 62.1631 14.668V17.944C62.1631 18.28 61.9951 18.448 61.6591 18.448C61.3231 18.448 61.1551 18.28 61.1551 17.944V14.668C61.1551 14.212 61.0671 13.882 60.8911 13.678C60.7191 13.474 60.4351 13.372 60.0391 13.372H59.5471C59.0911 13.372 58.7651 13.474 58.5691 13.678C58.3731 13.882 58.2751 14.212 58.2751 14.668V17.944C58.2751 18.28 58.1071 18.448 57.7711 18.448C57.4351 18.448 57.2671 18.28 57.2671 17.944V14.668C57.2671 14.212 57.1791 13.882 57.0031 13.678C56.8311 13.474 56.5471 13.372 56.1511 13.372H55.6591C55.2031 13.372 54.8771 13.474 54.6811 13.678C54.4851 13.882 54.3871 14.212 54.3871 14.668V17.944C54.3871 18.28 54.2191 18.448 53.8831 18.448C53.5471 18.448 53.3791 18.28 53.3791 17.944V12.868C53.3791 12.532 53.5471 12.364 53.8831 12.364C54.2191 12.364 54.3871 12.532 54.3871 12.868V13.144C54.5991 12.868 54.8311 12.67 55.0831 12.55C55.3391 12.426 55.6431 12.364 55.9951 12.364H56.1511C56.6471 12.364 57.0371 12.434 57.3211 12.574C57.6051 12.71 57.8211 12.932 57.9691 13.24C58.1811 12.924 58.4051 12.7 58.6411 12.568C58.8811 12.432 59.1831 12.364 59.5471 12.364H60.0391Z" fill="black"/>
<path d="M65.2553 15.82V16.108C65.2553 16.624 65.3493 16.976 65.5373 17.164C65.7253 17.348 66.0793 17.44 66.5993 17.44H67.5833C67.9913 17.44 68.2933 17.402 68.4893 17.326C68.6853 17.25 68.8153 17.116 68.8793 16.924C68.9233 16.772 68.9833 16.656 69.0593 16.576C69.1393 16.496 69.2593 16.456 69.4193 16.456C69.5873 16.456 69.7153 16.5 69.8033 16.588C69.8913 16.676 69.9193 16.804 69.8873 16.972C69.7993 17.468 69.5633 17.838 69.1793 18.082C68.7953 18.326 68.2633 18.448 67.5833 18.448H66.5993C65.8033 18.448 65.2113 18.256 64.8233 17.872C64.4393 17.488 64.2473 16.9 64.2473 16.108V14.716C64.2473 13.904 64.4393 13.308 64.8233 12.928C65.2113 12.544 65.8033 12.356 66.5993 12.364H67.5833C68.3833 12.364 68.9753 12.556 69.3593 12.94C69.7433 13.32 69.9353 13.912 69.9353 14.716V15.316C69.9353 15.652 69.7673 15.82 69.4313 15.82H65.2553ZM66.5993 13.372C66.0793 13.364 65.7253 13.454 65.5373 13.642C65.3493 13.83 65.2553 14.188 65.2553 14.716V14.812H68.9273V14.716C68.9273 14.192 68.8333 13.838 68.6453 13.654C68.4613 13.466 68.1073 13.372 67.5833 13.372H66.5993Z" fill="black"/>
<path d="M72.6448 18.448C72.3088 18.448 72.1408 18.28 72.1408 17.944V12.868C72.1408 12.532 72.3088 12.364 72.6448 12.364C72.9808 12.364 73.1488 12.532 73.1488 12.868V13.336C73.3848 13.016 73.6848 12.774 74.0488 12.61C74.4168 12.446 74.8368 12.364 75.3088 12.364C75.6448 12.364 75.8128 12.532 75.8128 12.868C75.8128 13.204 75.6448 13.372 75.3088 13.372C74.6168 13.372 74.0888 13.5 73.7248 13.756C73.3608 14.012 73.1688 14.35 73.1488 14.77V17.944C73.1488 18.28 72.9808 18.448 72.6448 18.448Z" fill="black"/>
</g>
<path d="M69.8496 21.7031V22H68.3125V21.7031H69.8496ZM69.793 20.1426L68.3945 22H68.1738V21.7344L69.5625 19.8867H69.793V20.1426ZM69.6328 19.8867V20.1855H68.1895V19.8867H69.6328ZM71.1055 22.0391C70.9583 22.0391 70.8249 22.0143 70.7051 21.9648C70.5866 21.9141 70.4844 21.8431 70.3984 21.752C70.3138 21.6608 70.2487 21.5527 70.2031 21.4277C70.1576 21.3027 70.1348 21.166 70.1348 21.0176V20.9355C70.1348 20.7637 70.1602 20.6107 70.2109 20.4766C70.2617 20.3411 70.3307 20.2266 70.418 20.1328C70.5052 20.0391 70.6042 19.9681 70.7148 19.9199C70.8255 19.8717 70.9401 19.8477 71.0586 19.8477C71.2096 19.8477 71.3398 19.8737 71.4492 19.9258C71.5599 19.9779 71.6504 20.0508 71.7207 20.1445C71.791 20.237 71.8431 20.3464 71.877 20.4727C71.9108 20.5977 71.9277 20.7344 71.9277 20.8828V21.0449H70.3496V20.75H71.5664V20.7227C71.5612 20.6289 71.5417 20.5378 71.5078 20.4492C71.4753 20.3607 71.4232 20.2878 71.3516 20.2305C71.2799 20.1732 71.1823 20.1445 71.0586 20.1445C70.9766 20.1445 70.901 20.1621 70.832 20.1973C70.763 20.2311 70.7038 20.2819 70.6543 20.3496C70.6048 20.4173 70.5664 20.5 70.5391 20.5977C70.5117 20.6953 70.498 20.8079 70.498 20.9355V21.0176C70.498 21.1178 70.5117 21.2122 70.5391 21.3008C70.5677 21.388 70.6087 21.4648 70.6621 21.5312C70.7168 21.5977 70.7826 21.6497 70.8594 21.6875C70.9375 21.7253 71.026 21.7441 71.125 21.7441C71.2526 21.7441 71.3607 21.7181 71.4492 21.666C71.5378 21.6139 71.6152 21.5443 71.6816 21.457L71.9004 21.6309C71.8548 21.6999 71.7969 21.7656 71.7266 21.8281C71.6562 21.8906 71.5697 21.9414 71.4668 21.9805C71.3652 22.0195 71.2448 22.0391 71.1055 22.0391ZM72.7109 20.2188V22H72.3496V19.8867H72.7012L72.7109 20.2188ZM73.3711 19.875L73.3691 20.2109C73.3392 20.2044 73.3105 20.2005 73.2832 20.1992C73.2572 20.1966 73.2272 20.1953 73.1934 20.1953C73.11 20.1953 73.0365 20.2083 72.9727 20.2344C72.9089 20.2604 72.8548 20.2969 72.8105 20.3438C72.7663 20.3906 72.7311 20.4466 72.7051 20.5117C72.6803 20.5755 72.6641 20.6458 72.6562 20.7227L72.5547 20.7812C72.5547 20.6536 72.5671 20.5339 72.5918 20.4219C72.6178 20.3099 72.6576 20.2109 72.7109 20.125C72.7643 20.0378 72.832 19.9701 72.9141 19.9219C72.9974 19.8724 73.0964 19.8477 73.2109 19.8477C73.237 19.8477 73.2669 19.8509 73.3008 19.8574C73.3346 19.8626 73.3581 19.8685 73.3711 19.875ZM73.5703 20.9668V20.9219C73.5703 20.7695 73.5924 20.6283 73.6367 20.498C73.681 20.3665 73.7448 20.2526 73.8281 20.1562C73.9115 20.0586 74.0124 19.9831 74.1309 19.9297C74.2493 19.875 74.3822 19.8477 74.5293 19.8477C74.6777 19.8477 74.8112 19.875 74.9297 19.9297C75.0495 19.9831 75.151 20.0586 75.2344 20.1562C75.319 20.2526 75.3835 20.3665 75.4277 20.498C75.472 20.6283 75.4941 20.7695 75.4941 20.9219V20.9668C75.4941 21.1191 75.472 21.2604 75.4277 21.3906C75.3835 21.5208 75.319 21.6348 75.2344 21.7324C75.151 21.8288 75.0501 21.9043 74.9316 21.959C74.8145 22.0124 74.6816 22.0391 74.5332 22.0391C74.3848 22.0391 74.2513 22.0124 74.1328 21.959C74.0143 21.9043 73.9128 21.8288 73.8281 21.7324C73.7448 21.6348 73.681 21.5208 73.6367 21.3906C73.5924 21.2604 73.5703 21.1191 73.5703 20.9668ZM73.9316 20.9219V20.9668C73.9316 21.0723 73.944 21.1719 73.9688 21.2656C73.9935 21.3581 74.0306 21.4401 74.0801 21.5117C74.1309 21.5833 74.194 21.64 74.2695 21.6816C74.3451 21.722 74.4329 21.7422 74.5332 21.7422C74.6322 21.7422 74.7188 21.722 74.793 21.6816C74.8685 21.64 74.931 21.5833 74.9805 21.5117C75.0299 21.4401 75.0671 21.3581 75.0918 21.2656C75.1178 21.1719 75.1309 21.0723 75.1309 20.9668V20.9219C75.1309 20.8177 75.1178 20.7194 75.0918 20.627C75.0671 20.5332 75.0293 20.4505 74.9785 20.3789C74.929 20.306 74.8665 20.2487 74.791 20.207C74.7168 20.1654 74.6296 20.1445 74.5293 20.1445C74.4303 20.1445 74.3431 20.1654 74.2676 20.207C74.1934 20.2487 74.1309 20.306 74.0801 20.3789C74.0306 20.4505 73.9935 20.5332 73.9688 20.627C73.944 20.7194 73.9316 20.8177 73.9316 20.9219Z" fill="#FF833B"/>
<defs>
<filter id="filter0_d_3_2" x="0" y="0" width="85.8128" height="28.448" filterUnits="userSpaceOnUse" color-interpolation-filters="sRGB">
<feFlood flood-opacity="0" result="BackgroundImageFix"/>
<feColorMatrix in="SourceAlpha" type="matrix" values="0 0 0 0 0 0 0 0 0 0 0 0 0 0 0 0 0 0 127 0" result="hardAlpha"/>
<feOffset/>
<feGaussianBlur stdDeviation="5"/>
<feComposite in2="hardAlpha" operator="out"/>
<feColorMatrix type="matrix" values="0 0 0 0 1 0 0 0 0 0.513726 0 0 0 0 0.231373 0 0 0 0.25 0"/>
<feBlend mode="normal" in2="BackgroundImageFix" result="effect1_dropShadow_3_2"/>
<feBlend mode="normal" in="SourceGraphic" in2="effect1_dropShadow_3_2" result="shape"/>
</filter>
</defs>
</svg>
